PathFileType	4	(X/Y/Z)	H:\MAC\Cortex8\Teaching\Biomec1_N_2\Trimmed_walk2.trc
DataRate	CameraRate	NumFrames	NumMarkers	Units	OrigDataRate	OrigDataStartFrame	OrigNumFrames
150.00	150.00	       4	28	mm	150.00	116	       184
Frame#	Time	R.ASIS			L.ASIS			R.PSIS			L.PSIS			L.Iliac.Crest			R.Iliac.Crest			R.GTR			R.Knee			R.HF			R.TT			R.Ankle			R.Heel			R.MT1			R.MT5			L.GTR			L.Knee			L.HF			L.TT			L.Ankle			L.Heel			L.MT1			L.MT5			R.Knee.Medial			R.Ankle.Medial			R.MT2			L.Knee.Medial			L.Ankle.Medial			L.MT2			V_Mid_ASIS			V_Mid_PSIS			V_Pelvis_Origin			V_R.Hip_JC			V_R.Knee_JC_Static			V_R.TT			V_R.Ankle_JC_Static			V_L.Hip_JC			V_Mid_Hip			V_R.MT2_Static			V_R.Knee.Medial			V_R.Ankle.Medial			V_R.TT			V_L.Knee_JC_Static			V_L.TT			V_L.Ankle_JC_Static			V_L.MT2_Static			V_R.Knee_JC			V_R.Ankle_JC			V_L.Knee_JC			V_L.Ankle_JC			V_R.TT_KJC_Static			V_L.TT_KJC_Static			V_R.TT_KJC			V_L.TT_KJC			V_R.MT2			V_L.MT2			
		X1	Y1	Z1	X2	Y2	Z2	X3	Y3	Z3	X4	Y4	Z4	X5	Y5	Z5	X6	Y6	Z6	X7	Y7	Z7	X8	Y8	Z8	X9	Y9	Z9	X10	Y10	Z10	X11	Y11	Z11	X12	Y12	Z12	X13	Y13	Z13	X14	Y14	Z14	X15	Y15	Z15	X16	Y16	Z16	X17	Y17	Z17	X18	Y18	Z18	X19	Y19	Z19	X20	Y20	Z20	X21	Y21	Z21	X22	Y22	Z22	X23	Y23	Z23	X24	Y24	Z24	X25	Y25	Z25	X26	Y26	Z26	X27	Y27	Z27	X28	Y28	Z28	

116	0.767	1407.95471	1004.76154	-314.28439	1370.75330	969.34552	-561.73944	1194.01672	1003.38574	-348.50046	1178.01868	989.84692	-424.07648	1273.15161	1027.62695	-589.92755	1337.19666	1051.17212	-261.94714	1357.52246	922.44940	-232.04561	1382.40576	500.72635	-284.25027	1399.28418	436.35532	-291.70474	1449.47424	433.16074	-353.64890	1371.42676	80.38454	-337.95105	1305.92358	52.14058	-393.54422	1532.58594	50.38552	-390.91266	1501.34399	50.89404	-307.21036	1281.48486	860.37543	-608.37634	1309.57910	496.75140	-616.38873	1285.28870	445.51712	-623.79901	1326.25000	395.09775	-571.08655	967.42047	277.84906	-567.55048	919.55762	315.79932	-503.30646	1023.26862	121.21852	-512.48022	994.60040	139.11064	-597.80658	1378.57471	492.75894	-421.43417	1405.05566	94.98112	-426.05774	1527.72668	61.68213	-354.42255	1334.34827	465.67255	-483.81567	1013.44598	253.75418	-486.04327	1024.55103	131.76309	-549.24420																																																																																		
117	0.773	1414.24573	1005.65094	-312.59229	1378.16675	971.23218	-560.33508	1200.47131	1004.74329	-348.32214	1184.66431	991.74420	-423.93793	1280.97742	1030.16821	-589.60492	1342.88562	1051.92249	-261.53293	1362.45569	922.61688	-231.06999	1383.67834	501.01694	-283.76804	1400.01953	436.49521	-291.24930	1450.25037	433.14594	-353.50644	1371.31653	80.39793	-337.94235	1305.89563	52.11982	-393.55023	1532.47693	50.43387	-390.86584	1501.20825	50.92674	-307.11725	1290.13721	862.91150	-608.74890	1324.51978	499.10968	-616.00452	1301.05005	447.89310	-623.52148	1342.73438	397.79245	-571.18927	984.78748	277.73260	-567.35254	935.50177	314.40103	-503.07321	1043.27722	122.00098	-512.73187	1014.97186	139.93715	-598.06512	1379.65210	493.12769	-421.00449	1405.01965	95.04095	-426.03174	1527.57410	61.73190	-354.38550	1350.22375	468.26831	-483.82803	1030.62451	254.10550	-485.47275	1044.60083	132.91946	-549.46313																																																																																		
118	0.780	1420.48547	1006.36414	-310.87045	1385.54431	973.08350	-558.95917	1206.91895	1006.01276	-348.11008	1191.47998	993.33344	-423.97656	1289.07507	1032.71765	-588.99274	1349.62976	1052.59644	-260.05814	1367.32690	922.73206	-230.18970	1384.88721	501.27435	-283.25238	1400.64294	436.62521	-290.78125	1451.11572	433.09616	-353.31967	1371.19556	80.41849	-337.97061	1305.87280	52.09311	-393.58240	1532.35364	50.45705	-390.79172	1501.09875	50.96660	-307.00253	1299.03040	865.85229	-609.11224	1339.27258	501.51633	-615.59589	1316.76660	450.31668	-623.22308	1359.08472	400.64157	-571.25879	1002.87390	277.10437	-567.13287	951.60999	312.37747	-503.10876	1063.93152	122.46360	-512.98065	1035.98303	140.21608	-598.57837	1380.84302	493.57462	-420.61008	1404.99353	95.08099	-426.01083	1527.42175	61.77773	-354.34689	1365.98987	470.91003	-483.90387	1048.11426	253.94426	-485.12585	1065.35950	133.61150	-549.60901																																																																																		
119	0.787	1426.70288	1006.97040	-309.14270	1392.87695	974.93646	-557.57117	1213.32043	1007.15558	-348.09061	1198.22620	995.02960	-424.03534	1297.47229	1035.28833	-588.30762	1355.84070	1053.03833	-259.09061	1372.07031	922.81732	-229.30841	1385.88525	501.52908	-282.83344	1401.01135	436.72296	-290.26797	1451.83716	433.01941	-352.98264	1371.08240	80.44225	-338.00110	1305.85034	52.09010	-393.61151	1532.24658	50.47297	-390.72021	1500.87781	51.40652	-307.07346	1308.31787	869.01202	-609.22882	1353.96960	503.96198	-615.14728	1332.38208	452.77432	-622.83893	1375.47253	403.54459	-571.19781	1020.31702	275.48804	-566.90021	968.07202	309.38290	-502.82965	1085.07117	122.45577	-513.12854	1057.30469	139.96951	-598.79205	1382.04126	494.03171	-420.21262	1404.96899	95.11890	-426.00366	1527.29175	61.79586	-354.29510	1381.49646	473.80164	-483.99484	1066.12927	253.18286	-484.80652	1087.16187	133.27960	-549.41626																																																																																		
